# xmcd CD database file
#
# Track frame offsets:
#	150
#	17967
#	32402
#	47002
#	61215
#	73195
#	88277
#	107937
#	119662
#	138480
#	152830
#	166597
#	180655
#	195825
#
# Disc length: 2803 seconds
#
# Revision: 0
# Processed by: cddbd v1.4PL0 Copyright (c) Steve Scherf et al.
# Submitted via: CDex 1.50Beta7
#
DISCID=be0af10e
DTITLE=Mike Dekle - Fine Tuned
DYEAR=2000
DGENRE=Country
TTITLE0=She's Worth Fighting For
TTITLE1=You Wouldn't Be My First Mistake
TTITLE2=Stone By Stone
TTITLE3=The Photograph
TTITLE4=Road Kill Cafe
TTITLE5=Musical Chairs
TTITLE6=Jackson's Radiator shop
TTITLE7=Joe's Place
TTITLE8=Rising Suns
TTITLE9=Forgive This Fool
TTITLE10=One of Those Kind of Days
TTITLE11=Don't Love Make A Diamond Shine
TTITLE12=Someone Must Feel Like A Fool Tonight
TTITLE13=Family Ties
EXTD=YEAR: 2000
EXTT0=
EXTT1=
EXTT2=
EXTT3=
EXTT4=
EXTT5=
EXTT6=
EXTT7=
EXTT8=
EXTT9=
EXTT10=
EXTT11=
EXTT12=
EXTT13=
PLAYORDER=
